<svg width="176" height="52" viewBox="0 0 176 52" fill="none" xmlns="http://www.w3.org/2000/svg">
<path d="M0.616943 44.6171V36.4886H4.66434V44.5419C4.66434 46.6242 5.71367 47.6277 7.31265 47.6277C8.91162 47.6277 9.98593 46.6743 9.98593 44.6422V36.4886H14.0333V44.5168C14.0333 49.1832 11.385 51.2404 7.28766 51.2404C3.19029 51.2404 0.616943 49.1581 0.616943 44.6171Z" fill="#ED7724"/>
<path d="M18.2805 36.4886H25.1011C27.2997 36.4886 28.8238 37.0656 29.7981 38.0691C30.6476 38.897 31.0723 40.026 31.0723 41.4309V41.4811C31.0723 43.6889 29.8981 45.1691 28.0992 45.9217L31.547 50.9644H26.925L24.0268 46.574H22.278V50.9644H18.2805V36.4886ZM24.9013 43.438C26.2504 43.438 27.0499 42.7857 27.0499 41.732V41.6818C27.0499 40.5529 26.2254 39.9758 24.9013 39.9758H22.278V43.438H24.9013Z" fill="#ED7724"/>
<path d="M34.0205 43.7892V43.739C34.0205 39.5242 37.3184 36.2126 41.7905 36.2126C44.3139 36.2126 46.1128 36.9903 47.6368 38.32L45.2883 41.155C44.264 40.2769 43.2396 39.8002 41.8155 39.8002C39.7418 39.8002 38.1179 41.5564 38.1179 43.7641V43.8143C38.1179 46.1475 39.7419 47.8284 42.0404 47.8284C42.8399 47.8535 43.6643 47.6528 44.3389 47.2263V45.4701H41.4907V42.5348H48.1115V49.0577C46.3376 50.5128 44.139 51.3157 41.8405 51.2906C37.3684 51.2655 34.0205 48.1796 34.0205 43.7892" fill="#ED7724"/>
<path d="M52.2089 36.4886H63.8014V39.9006H56.1813V42.1083H63.1019V45.2694H56.1813V47.5524H63.9263V50.9644H52.2089V36.4886Z" fill="#ED7724"/>
<path d="M67.8987 36.4886H71.6213L77.5425 44.1405V36.4886H81.49V50.9644H77.9922L71.8462 43.0366V50.9644H67.8987V36.4886Z" fill="#ED7724"/>
<path d="M88.9104 40.026H84.5881V36.4886H97.23V40.026H92.9078V50.9644H88.9104V40.026Z" fill="#ED7724"/>
<path d="M107.498 43.7892V43.739C107.498 39.5242 110.721 36.2126 115.093 36.2126C118.041 36.2126 119.94 37.4419 121.214 39.2232L118.216 41.5564C117.392 40.5278 116.443 39.8504 115.068 39.8504C113.045 39.8504 111.621 41.5564 111.621 43.6638V43.714C111.621 45.8715 113.045 47.5775 115.068 47.5775C116.567 47.5775 117.467 46.875 118.316 45.8214L121.314 47.9789C119.965 49.8605 118.116 51.2404 114.943 51.2404C110.896 51.3156 107.573 48.0542 107.498 44.015C107.473 43.9397 107.473 43.8394 107.498 43.7892" fill="#ED7724"/>
<path d="M129.384 36.3882H133.232L139.378 50.9644H135.106L134.056 48.3803H128.485L127.461 50.9644H123.263L129.384 36.3882ZM132.882 45.2694L131.283 41.155L129.659 45.2694H132.882Z" fill="#ED7724"/>
<path d="M142.301 36.4886H149.122C151.32 36.4886 152.844 37.0656 153.819 38.0691C154.668 38.897 155.093 40.026 155.093 41.4309V41.4811C155.093 43.6889 153.919 45.1691 152.12 45.9217L155.568 50.9644H150.945L148.047 46.574H146.298V50.9644H142.301V36.4886ZM148.922 43.438C150.271 43.438 151.07 42.7857 151.07 41.732V41.6818C151.07 40.5529 150.246 39.9758 148.897 39.9758H146.273V43.438H148.922Z" fill="#ED7724"/>
<path d="M158.816 36.4886H170.408V39.9006H162.788V42.1083H169.709V45.2694H162.788V47.5524H170.508V50.9644H158.816V36.4886Z" fill="#ED7724"/>
<path d="M0.666873 0.0355835C0.491986 0.0355835 0.367065 0.161024 0.367065 0.336641V29.7148C0.367065 29.8904 0.491986 30.0159 0.666873 30.0159H32.9462C33.1211 30.0159 33.246 29.8904 33.246 29.7148V0.336641C33.246 0.161024 33.1211 0.0355835 32.9462 0.0355835H0.666873ZM16.8065 24.5968C11.5599 24.5968 7.31261 20.3319 7.31261 15.0634C7.31261 9.79485 11.5599 5.52988 16.8065 5.52988C22.0532 5.52988 26.3004 9.79485 26.3004 15.0634C26.3004 20.3319 22.0532 24.5968 16.8065 24.5968" fill="#ED7724"/>
<path d="M14.4079 8.49029C14.3829 8.46521 14.3579 8.46521 14.3579 8.51538V12.2284C14.3579 12.2786 14.333 12.3037 14.283 12.3037H9.36115C8.83649 13.9093 8.83649 15.6655 9.36115 17.2711H14.308C14.3579 17.2711 14.3829 17.2962 14.3829 17.3464V20.9591C14.3829 20.9842 14.4079 21.0093 14.4329 20.9842L19.9044 14.8376C19.9294 14.8125 19.9294 14.7623 19.9044 14.7372L14.4079 8.49029Z" fill="#04A7E0"/>
<path d="M23.3773 17.246C23.4272 17.246 23.4522 17.2209 23.4522 17.1708V12.404C23.4522 12.3538 23.4272 12.3287 23.3773 12.3287H19.6047C19.5547 12.3287 19.5297 12.3037 19.5297 12.2535V8.49027C19.5297 8.4401 19.5047 8.41501 19.4548 8.41501H15.3824C15.3324 8.41501 15.3324 8.4401 15.3574 8.46518L20.9538 14.7121C20.9788 14.7372 20.9788 14.7874 20.9538 14.8125L15.3074 20.934C15.2824 20.9591 15.2824 20.9841 15.3324 20.9841H19.4798C19.5297 20.9841 19.5547 20.959 19.5547 20.9089V17.2711C19.5547 17.2209 19.5797 17.1958 19.6297 17.1958L23.3773 17.246Z" fill="#ED7724"/>
<path opacity="0.08" d="M9.76089 12.7051L9.36115 12.3037C8.83649 13.9093 8.83649 15.6655 9.36115 17.2711L9.76089 16.8697C9.41112 15.4899 9.41112 14.0599 9.76089 12.7051Z" fill="#010101"/>
<path opacity="0.25" d="M9.36145 12.2786L9.76119 12.68H14.783L14.3582 12.2535C14.3582 12.2786 14.3333 12.2786 14.3083 12.2786H9.36145Z" fill="white"/>
<path opacity="0.08" d="M14.6829 9.21782L14.3581 8.46518V8.49027V12.2284C14.3581 12.2535 14.3581 12.2535 14.3331 12.2786L14.7579 12.7051L14.6829 9.21782Z" fill="#010101"/>
<path opacity="0.25" d="M19.9047 14.7372L14.4332 8.49027C14.4082 8.46518 14.4082 8.46518 14.4082 8.46518L14.733 9.21782L19.8047 14.7874H19.9546C19.9297 14.7874 19.9047 14.7623 19.9047 14.7372Z" fill="white"/>
<path opacity="0.25" d="M19.9297 14.7874H19.7798L14.708 20.2315L14.4082 20.9841C14.4082 20.9841 14.4332 20.9841 14.4332 20.9591L19.9297 14.8376C19.9047 14.8125 19.9297 14.8125 19.9297 14.7874Z" fill="white"/>
<path opacity="0.08" d="M14.358 17.2962C14.358 17.3213 14.383 17.3213 14.383 17.3464V20.9591C14.383 20.9841 14.383 20.9841 14.408 20.9841L14.7078 20.2315L14.8077 16.8446L14.358 17.2962Z" fill="#010101"/>
<path opacity="0.25" d="M14.3582 17.2962L14.8079 16.8446L9.7861 16.8697L9.38635 17.2711H14.3332C14.3082 17.2711 14.3332 17.2711 14.3582 17.2962V17.2962Z" fill="white"/>
<path d="M50.6349 16.7192H56.756V21.5361C55.132 22.7905 53.1333 23.4679 51.0846 23.493C46.3876 23.493 43.2397 20.1813 43.2397 15.2139V15.1637C43.2397 10.5977 46.5375 7.01005 50.7598 7.01005C53.7829 7.01005 55.4318 8.11393 56.806 9.29307L56.9059 9.39343L58.5548 7.43655L58.4549 7.31111C56.1814 5.37933 53.9578 4.60159 50.8598 4.60159C45.1135 4.60159 40.6163 9.26798 40.6163 15.2139V15.264C40.6163 21.4859 44.8886 25.8261 51.0097 25.8261C54.0327 25.8261 56.9309 24.7223 59.2044 22.6901L59.2544 22.64V14.3609H50.6599V16.7192H50.6349Z" fill="#04A7E0"/>
<path d="M70.2472 9.92027C65.925 9.8701 62.3772 13.3573 62.3273 17.6976V17.8732V17.9234C62.3523 22.3138 65.9 25.8512 70.2472 25.8261C74.6194 25.801 78.1421 22.2385 78.1172 17.8732V17.823C78.1671 13.5079 74.6943 9.97045 70.3971 9.92027C70.3471 9.92027 70.2972 9.92027 70.2472 9.92027ZM70.2472 23.5431C67.2491 23.5431 64.9006 21.0594 64.9006 17.8732V17.823C64.9006 14.6117 67.1742 12.1782 70.1972 12.1782C73.2203 12.1782 75.5938 14.687 75.5938 17.8732V17.9234C75.5688 21.1346 73.2703 23.5431 70.2472 23.5431" fill="#04A7E0"/>
<path d="M81.615 5.10333H86.0372V13.1064H94.2319V5.10333H98.6541V25.3494H94.2319V17.2209H86.0372V25.3494H81.615V5.10333Z" fill="#04A7E0"/>
<path d="M101.552 17.6725V17.6223C101.552 13.2068 104.7 9.54398 109.172 9.54398C114.319 9.54398 116.692 13.5581 116.692 17.9485C116.692 18.2997 116.667 18.7011 116.642 19.1025H105.899C106.324 21.1096 107.723 22.1382 109.672 22.1382C111.146 22.1382 112.195 21.6866 113.42 20.5576L115.918 22.7905C114.469 24.5717 112.42 25.6756 109.622 25.6756C104.975 25.6756 101.552 22.4142 101.552 17.6725V17.6725ZM112.445 16.3679C112.195 14.4111 111.046 13.0814 109.197 13.0814C107.348 13.0814 106.199 14.386 105.849 16.3679H112.445Z" fill="#04A7E0"/>
<path d="M118.641 20.8838V20.8336C118.641 17.4467 121.215 15.8912 124.862 15.8912C126.136 15.8912 127.411 16.092 128.635 16.5185V16.2676C128.635 14.4361 127.511 13.4326 125.337 13.4326C123.888 13.4326 122.439 13.7086 121.065 14.2605L119.965 10.8987C121.839 10.0206 123.888 9.59414 125.962 9.64432C128.36 9.64432 130.084 10.2715 131.183 11.3754C132.332 12.5294 132.857 14.2354 132.857 16.3177V25.2993H128.61V23.6184C127.536 24.7975 126.086 25.5753 123.938 25.5753C121.04 25.6254 118.641 23.9445 118.641 20.8838V20.8838ZM128.685 19.8803V19.1025C127.81 18.7011 126.861 18.5255 125.887 18.5255C124.013 18.5255 122.864 19.2781 122.864 20.658V20.7082C122.864 21.8873 123.838 22.5898 125.262 22.5898C127.311 22.5898 128.685 21.4608 128.685 19.8803Z" fill="#04A7E0"/>
<path d="M136.23 4.22528H140.602V25.3244H136.23V4.22528Z" fill="#04A7E0"/>
<path d="M145.274 20.934V13.5832H143.425V9.81997H145.274V5.88113H149.646V9.84505H153.269V13.6083H149.646V20.2315C149.646 21.2351 150.071 21.7368 151.07 21.7368C151.82 21.7368 152.569 21.5612 153.219 21.1849V24.7223C152.17 25.3495 150.97 25.6506 149.771 25.6255C147.098 25.6004 145.274 24.5467 145.274 20.934" fill="#04A7E0"/>
<path d="M156.492 4.22528H160.864V12.0277C161.864 10.7231 163.163 9.54396 165.386 9.54396C168.684 9.54396 170.633 11.7517 170.633 15.2891V25.3244H166.261V16.669C166.261 14.5867 165.286 13.5079 163.612 13.5079C161.938 13.5079 160.864 14.5867 160.864 16.669V25.3244H156.492V4.22528Z" fill="#04A7E0"/>
<path d="M172.557 23.8943C172.557 23.1166 173.181 22.4894 173.956 22.4894C174.73 22.4894 175.355 23.1166 175.355 23.8943C175.355 24.647 174.73 25.2993 173.956 25.2993C173.156 25.2993 172.557 24.647 172.557 23.8943ZM175.18 23.8943C175.18 23.1919 174.655 22.6399 173.956 22.6399C173.256 22.6399 172.732 23.217 172.732 23.8943C172.732 24.5717 173.256 25.1487 173.956 25.1487C174.655 25.1487 175.18 24.5717 175.18 23.8943ZM173.381 23.1417H174.056C174.381 23.1417 174.63 23.2922 174.63 23.6184C174.63 23.8442 174.506 23.9947 174.306 24.07L174.68 24.5968H174.256L173.956 24.1452H173.731V24.5968H173.381V23.1417ZM174.031 23.8442C174.181 23.8442 174.281 23.7689 174.281 23.6435C174.281 23.518 174.181 23.4428 174.031 23.4428H173.731V23.8442H174.031Z" fill="#04A7E0"/>
</svg>
